# xmcd
#
# Track frame offsets:
#	150
#	15055
#	33140
#	62617
#	80718
#	100867
#	119844
#	136445
#	148492
#	168393
#	186777
#	204703
#
# Disc length: 2915 seconds
#
# Revision: 1
# Processed by: cddbd v1.5.2PL0 Copyright (c) Steve Scherf et al.
# Submitted via: audiograbber 1.83.01
#
DISCID=a90b610c
DTITLE=Various Artist - Simply Christmas A Savior Is Born Disc 2
DYEAR=2000
DGENRE=Easy Listening
TTITLE0=It Came Upon A Midnight Clear
TTITLE1=What Child Is This
TTITLE2=Deck The Halls
TTITLE3=Hark The Herald Angels Sing
TTITLE4=Oh Christmas Tree
TTITLE5=I Wonder As I Wander
TTITLE6=Let It Snow
TTITLE7=Good King Wencelas
TTITLE8=We Three Kings
TTITLE9=I Heard The Bells On Christmas Day
TTITLE10=Cold December Flies Away
TTITLE11=God Rest Ye Merry Gentlemen
EXTD=
EXTT0=
EXTT1=
EXTT2=
EXTT3=
EXTT4=
EXTT5=
EXTT6=
EXTT7=
EXTT8=
EXTT9=
EXTT10=
EXTT11=
PLAYORDER=
